<?xml version="1.0" encoding="UTF-8" standalone="no"?>
<svg
   xmlns:dc="http://purl.org/dc/elements/1.1/"
   xmlns:cc="http://creativecommons.org/ns#"
   xmlns:rdf="http://www.w3.org/1999/02/22-rdf-syntax-ns#"
   xmlns:svg="http://www.w3.org/2000/svg"
   xmlns="http://www.w3.org/2000/svg"
   xmlns:sodipodi="http://sodipodi.sourceforge.net/DTD/sodipodi-0.dtd"
   xmlns:inkscape="http://www.inkscape.org/namespaces/inkscape"
   version="1.0"
   width="199.59386"
   height="75.205956"
   id="svg2"
   sodipodi:docname="kpl-text.svg"
   inkscape:version="1.0.2 (1.0.2+r75+1)">
  <sodipodi:namedview
     pagecolor="#ffffff"
     bordercolor="#666666"
     borderopacity="1"
     objecttolerance="10"
     gridtolerance="10"
     guidetolerance="10"
     inkscape:pageopacity="0"
     inkscape:pageshadow="2"
     inkscape:window-width="1920"
     inkscape:window-height="1015"
     id="namedview1196"
     showgrid="false"
     inkscape:pagecheckerboard="true"
     showguides="false"
     inkscape:guide-bbox="true"
     inkscape:zoom="3.7770848"
     inkscape:cx="51.32202"
     inkscape:cy="42.532648"
     inkscape:window-x="0"
     inkscape:window-y="0"
     inkscape:window-maximized="1"
     inkscape:current-layer="layer1"
     inkscape:document-rotation="0"
     fit-margin-top="0"
     fit-margin-left="0"
     fit-margin-right="0"
     fit-margin-bottom="0"
     inkscape:showpageshadow="true"
     showborder="true">
    <sodipodi:guide
       position="-3.0096082,-23.914057"
       orientation="1,0"
       id="guide1198" />
    <sodipodi:guide
       position="25.054362,1.2376195"
       orientation="0,-1"
       id="guide1200" />
    <sodipodi:guide
       position="34.717902,-55.684591"
       orientation="0,-1"
       id="guide1202" />
    <sodipodi:guide
       position="53.118336,-30.93005"
       orientation="1,0"
       id="guide1204" />
    <sodipodi:guide
       position="53.118336,-27.157299"
       orientation="0,-1"
       id="guide1209" />
    <sodipodi:guide
       position="90.017766,45.002849"
       orientation="0,-1"
       id="guide849" />
  </sodipodi:namedview>
  <defs
     id="defs124" />
  <metadata
     id="metadata4">
    <rdf:RDF>
      <cc:Work
         rdf:about="">
        <dc:format>image/svg+xml</dc:format>
        <dc:type
           rdf:resource="http://purl.org/dc/dcmitype/StillImage" />
        <dc:title></dc:title>
      </cc:Work>
    </rdf:RDF>
  </metadata>
  <g
     inkscape:groupmode="layer"
     id="layer1"
     inkscape:label="Layer 1"
     transform="translate(-6.7161682,-73.207268)"
     style="display:inline">
    <path
       d="m 6.7313805,130.22555 c 0,0 -0.0211,-26.33691 -0.0136,-37.191054 l 0.0136,-19.731151 h 9.3113295 9.31133 v 23.368883 c 0,22.774552 -0.0359,33.553322 -0.0359,33.553322 z"
       id="path3203"
       style="fill:#ff0000;fill-opacity:1"
       sodipodi:nodetypes="cscccscc" />
    <path
       d="m 76.86204,101.72216 -0.01477,-28.514892 27.76084,0.13751 c 27.01196,0.133802 27.85056,0.05276 31.69572,1.995282 11.70564,5.913512 14.35457,27.48799 4.47132,36.41693 -4.29874,3.88364 -7.00474,4.33342 -23.93583,3.97851 l -12.78694,-0.26805 -3.84044,-6.50471 c -2.112253,-3.5776 -3.840454,-6.67029 -3.840453,-6.87265 0,-0.20236 6.384913,-0.36793 14.188693,-0.36793 13.0063,0 14.33649,-0.14779 15.96227,-1.773583 2.41878,-2.41875 2.40685,-8.234682 -0.0218,-10.663377 -1.67733,-1.677332 -2.74205,-1.779423 -16.18398,-1.551891 L 95.928136,87.976866 95.690388,109.0382 95.39324,130.22523 c -6.166887,0.0158 -12.333778,0.0133 -18.500676,0.0118 l -0.03048,-28.51492 z"
       id="path3201"
       style="fill:#ff0000;fill-opacity:1"
       sodipodi:nodetypes="ccsssscssscsscccccc" />
    <path
       d="m 155.93847,128.64508 c -5.28652,-2.60535 -5.49643,-3.78314 -5.49643,-30.840476 V 73.373747 h 8.4082 8.40819 l 0.23804,20.617944 0.23804,20.617939 15.74097,0.24217 15.74098,0.24216 3.54678,7.05419 c 1.95073,3.87981 3.54678,7.26259 3.54678,7.51729 0,0.25469 -10.67477,0.45399 -23.72172,0.44288 -20.09158,-0.0171 -24.16981,-0.24102 -26.64983,-1.46324 z"
       id="path1873"
       style="fill:#ff0000;fill-opacity:1"
       sodipodi:nodetypes="sscccccccssss" />
    <path
       d="m 72.118466,73.550293 c -3.971987,4.083951 -23.317401,23.038735 -23.031936,28.508017 0.490883,5.53594 14.690301,17.71782 22.968418,28.1887 l -27.447777,0.0246 c 0,0 -15.189291,-19.82816 -16.903954,-24.73183 -1.25412,-3.4134 -0.826934,-4.80775 -0.257654,-7.77463 0.99864,-5.204513 11.874907,-17.250943 18.323967,-24.269926 z"
       id="path1206"
       style="fill:#ff0000;fill-opacity:1"
       sodipodi:nodetypes="cccccscc" />
    <text
       xml:space="preserve"
       style="font-style:normal;font-weight:normal;font-size:14.1333px;line-height:1.25;font-family:sans-serif;letter-spacing:0px;word-spacing:0px;fill:#000000;fill-opacity:1;stroke:none"
       x="5.9983501"
       y="145.36987"
       id="text1475"><tspan
         sodipodi:role="line"
         id="tspan1473"
         x="5.9983501"
         y="145.36987"
         style="font-style:normal;font-variant:normal;font-weight:bold;font-stretch:normal;font-size:14.1333px;font-family:Helvetica;-inkscape-font-specification:'Helvetica Bold'">Kerbal Propulsion Laboratory</tspan></text>
  </g>
</svg>
