<?xml version="1.0" encoding="UTF-8" standalone="no"?>
<svg
   xmlns:dc="http://purl.org/dc/elements/1.1/"
   xmlns:cc="http://creativecommons.org/ns#"
   xmlns:rdf="http://www.w3.org/1999/02/22-rdf-syntax-ns#"
   xmlns:svg="http://www.w3.org/2000/svg"
   xmlns="http://www.w3.org/2000/svg"
   xmlns:sodipodi="http://sodipodi.sourceforge.net/DTD/sodipodi-0.dtd"
   xmlns:inkscape="http://www.inkscape.org/namespaces/inkscape"
   version="1.0"
   width="195.41512"
   height="76.782677"
   id="svg2"
   sodipodi:docname="kpl-text.svg"
   inkscape:version="1.0.2 (1.0.2+r75+1)">
  <sodipodi:namedview
     pagecolor="#ffffff"
     bordercolor="#666666"
     borderopacity="1"
     objecttolerance="10"
     gridtolerance="10"
     guidetolerance="10"
     inkscape:pageopacity="0"
     inkscape:pageshadow="2"
     inkscape:window-width="1920"
     inkscape:window-height="1015"
     id="namedview1196"
     showgrid="false"
     inkscape:pagecheckerboard="true"
     showguides="true"
     inkscape:guide-bbox="true"
     inkscape:zoom="3.7770848"
     inkscape:cx="90.096289"
     inkscape:cy="46.351654"
     inkscape:window-x="0"
     inkscape:window-y="0"
     inkscape:window-maximized="1"
     inkscape:current-layer="svg2"
     inkscape:document-rotation="0"
     fit-margin-top="0"
     fit-margin-left="0"
     fit-margin-right="0"
     fit-margin-bottom="0">
    <sodipodi:guide
       position="0.015183729,51.46941"
       orientation="1,0"
       id="guide1198" />
    <sodipodi:guide
       position="28.079155,76.621087"
       orientation="0,-1"
       id="guide1200" />
    <sodipodi:guide
       position="37.742692,19.698876"
       orientation="0,-1"
       id="guide1202" />
    <sodipodi:guide
       position="56.143127,44.453417"
       orientation="1,0"
       id="guide1204" />
    <sodipodi:guide
       position="56.143127,48.226168"
       orientation="0,-1"
       id="guide1209" />
  </sodipodi:namedview>
  <defs
     id="defs124" />
  <metadata
     id="metadata4">
    <rdf:RDF>
      <cc:Work
         rdf:about="">
        <dc:format>image/svg+xml</dc:format>
        <dc:type
           rdf:resource="http://purl.org/dc/dcmitype/StillImage" />
        <dc:title></dc:title>
      </cc:Work>
    </rdf:RDF>
  </metadata>
  <path
     d="m 0.01518373,57.083801 c 0,0 -0.02105,-26.336916 -0.01358,-37.191061 l 0.01358,-19.73115021 H 9.3265124 18.637841 V 23.530472 c 0,22.774554 -0.0359,33.553329 -0.0359,33.553329 z"
     id="path3203"
     style="fill:#ff0000;fill-opacity:1"
     sodipodi:nodetypes="cscccscc" />
  <path
     d="M 64.525906,28.538974 V 0.16158979 h 27.746088 c 27.012266,0 27.850546,0.052764 31.695706,1.99528481 11.70563,5.91351 14.35457,27.4879924 4.47131,36.4169274 -4.29873,3.883641 -7.00473,4.333422 -23.93582,3.97851 L 91.716259,42.28427 87.875814,35.779552 c -2.112256,-3.577599 -3.840457,-6.670281 -3.840457,-6.872648 0,-0.202357 6.384916,-0.36793 14.188694,-0.36793 13.006299,0 14.336489,-0.147793 15.962269,-1.773587 2.41878,-2.418755 2.40685,-8.234682 -0.0218,-10.663378 -1.67733,-1.677334 -2.74205,-1.779422 -16.183979,-1.551889 l -14.388535,0.243558 -0.237749,21.06134 -0.237749,21.061341 H 73.821229 64.525951 V 28.538974 Z"
     id="path3201"
     style="fill:#ff0000;fill-opacity:1" />
  <path
     d="m 144.51297,55.432922 c -5.28652,-2.605346 -5.49643,-3.783131 -5.49643,-30.84048 V 0.16158979 h 8.4082 8.40819 l 0.23804,20.61794321 0.23804,20.617943 15.74097,0.242166 15.74098,0.242165 3.54678,7.054192 c 1.95073,3.87981 3.54678,7.262589 3.54678,7.517285 0,0.254696 -10.67477,0.453994 -23.72172,0.442882 -20.09158,-0.01712 -24.16981,-0.241021 -26.64983,-1.463244 z"
     id="path1873"
     style="fill:#ff0000;fill-opacity:1" />
  <path
     d="M 59.388919,0.24056879 C 55.760415,4.725341 36.058613,23.335182 36.398504,28.556509 c 1.304142,4.795135 14.837337,18.05641 23.115454,28.527292 H 36.641492 c 0,0 -15.421279,-20.25119 -16.494039,-22.665215 -1.254123,-3.413404 -1.345882,-7.112154 -0.776599,-10.07903 0.998641,-5.204513 11.879145,-17.1589833 18.328203,-24.17796621 0.311405,-0.40501793 21.689862,0.078979 21.689862,0.078979 z"
     id="path1206"
     style="fill:#ff0000;fill-opacity:1"
     sodipodi:nodetypes="cccccscc" />
  <g
     inkscape:groupmode="layer"
     id="layer1"
     inkscape:label="Layer 1"
     transform="translate(-3.6913786,-1.1621778)" />
  <text
     xml:space="preserve"
     style="font-style:normal;font-weight:normal;font-size:13.6px;line-height:1.25;font-family:sans-serif;letter-spacing:0px;word-spacing:0px;fill:#000000;fill-opacity:1;stroke:none"
     x="-0.071611382"
     y="73.854164"
     id="text1213"><tspan
       sodipodi:role="line"
       id="tspan1211"
       x="-0.071611382"
       y="73.854164"
       style="font-style:normal;font-variant:normal;font-weight:bold;font-stretch:normal;font-size:13.6px;font-family:Helvetica;-inkscape-font-specification:'Helvetica Bold'">Kerbal Propulsion  Laboratory</tspan></text>
</svg>
