<?xml version="1.0" encoding="UTF-8" standalone="no"?>
<svg
   xmlns:dc="http://purl.org/dc/elements/1.1/"
   xmlns:cc="http://creativecommons.org/ns#"
   xmlns:rdf="http://www.w3.org/1999/02/22-rdf-syntax-ns#"
   xmlns:svg="http://www.w3.org/2000/svg"
   xmlns="http://www.w3.org/2000/svg"
   xmlns:sodipodi="http://sodipodi.sourceforge.net/DTD/sodipodi-0.dtd"
   xmlns:inkscape="http://www.inkscape.org/namespaces/inkscape"
   version="1.0"
   width="200"
   height="200"
   id="svg2"
   sodipodi:docname="kpl.svg"
   inkscape:version="1.0.2 (1.0.2+r75+1)">
  <sodipodi:namedview
     pagecolor="#ffffff"
     bordercolor="#666666"
     borderopacity="1"
     objecttolerance="10"
     gridtolerance="10"
     guidetolerance="10"
     inkscape:pageopacity="0"
     inkscape:pageshadow="2"
     inkscape:window-width="1920"
     inkscape:window-height="1015"
     id="namedview1196"
     showgrid="false"
     inkscape:pagecheckerboard="true"
     showguides="true"
     inkscape:guide-bbox="true"
     inkscape:zoom="1.8885424"
     inkscape:cx="99.37695"
     inkscape:cy="78.35138"
     inkscape:window-x="0"
     inkscape:window-y="0"
     inkscape:window-maximized="1"
     inkscape:current-layer="svg2"
     inkscape:document-rotation="0"
     fit-margin-top="0"
     fit-margin-left="0"
     fit-margin-right="0"
     fit-margin-bottom="0">
    <sodipodi:guide
       position="0.015183728,31.770535"
       orientation="1,0"
       id="guide1198" />
    <sodipodi:guide
       position="28.079155,56.922212"
       orientation="0,-1"
       id="guide1200" />
    <sodipodi:guide
       position="37.742692,5.754009e-07"
       orientation="0,-1"
       id="guide1202" />
    <sodipodi:guide
       position="56.143127,24.754542"
       orientation="1,0"
       id="guide1204" />
    <sodipodi:guide
       position="56.143127,28.527293"
       orientation="0,-1"
       id="guide1209" />
  </sodipodi:namedview>
  <defs
     id="defs124" />
  <metadata
     id="metadata4">
    <rdf:RDF>
      <cc:Work
         rdf:about="">
        <dc:format>image/svg+xml</dc:format>
        <dc:type
           rdf:resource="http://purl.org/dc/dcmitype/StillImage" />
        <dc:title></dc:title>
      </cc:Work>
    </rdf:RDF>
  </metadata>
  <path
     d="m 3.8416563,127.5502 c 0,0 -0.02105,-26.33691 -0.01358,-37.191053 l 0.01358,-19.731151 h 9.3113287 9.311328 v 23.368883 c 0,22.774551 -0.0359,33.553321 -0.0359,33.553321 z"
     id="path3203"
     style="fill:#ff0000;fill-opacity:1"
     sodipodi:nodetypes="cscccscc" />
  <path
     d="M 68.352378,99.005383 V 70.627996 h 27.746088 c 27.012274,0 27.850554,0.05276 31.695714,1.995285 11.70563,5.91351 14.35457,27.487989 4.47131,36.416929 -4.29873,3.88364 -7.00473,4.33342 -23.93582,3.97851 l -12.786939,-0.26805 -3.840445,-6.50471 c -2.112256,-3.5776 -3.840457,-6.670287 -3.840457,-6.872647 0,-0.20236 6.384916,-0.36793 14.188701,-0.36793 13.0063,0 14.33649,-0.1478 15.96227,-1.77359 2.41878,-2.41875 2.40685,-8.234681 -0.0218,-10.663377 -1.67733,-1.677334 -2.74205,-1.779422 -16.18398,-1.551889 L 87.418478,85.260085 87.180729,106.32142 86.94298,127.38276 H 77.647701 68.352423 V 99.005383 Z"
     id="path3201"
     style="fill:#ff0000;fill-opacity:1" />
  <path
     d="m 148.33945,125.89933 c -5.28652,-2.60535 -5.49643,-3.78314 -5.49643,-30.840477 V 70.627996 h 8.4082 8.40819 l 0.23804,20.617944 0.23804,20.61794 15.74097,0.24217 15.74098,0.24216 3.54678,7.05419 c 1.95073,3.87981 3.54678,7.26259 3.54678,7.51729 0,0.25469 -10.67477,0.45399 -23.72172,0.44288 -20.09158,-0.0171 -24.16981,-0.24102 -26.64983,-1.46324 z"
     id="path1873"
     style="fill:#ff0000;fill-opacity:1" />
  <path
     d="M 63.215391,70.706975 C 59.586887,75.191748 39.885085,93.801589 40.224976,99.022913 41.529118,103.81805 55.062313,117.07932 63.34043,127.5502 H 40.467964 c 0,0 -15.421279,-20.25119 -16.494039,-22.66521 -1.254123,-3.4134 -1.345882,-7.112147 -0.776599,-10.079027 0.998641,-5.204513 11.879145,-17.158984 18.328203,-24.177967 0.311405,-0.405018 21.689862,0.07898 21.689862,0.07898 z"
     id="path1206"
     style="fill:#ff0000;fill-opacity:1"
     sodipodi:nodetypes="cccccscc" />
  <g
     inkscape:groupmode="layer"
     id="layer1"
     inkscape:label="Layer 1"
     transform="translate(-3.6913786,-1.1621778)" />
</svg>
